<?xml version="1.0" encoding="utf-8"?>
<!-- Generator: Adobe Illustrator 21.1.0, SVG Export Plug-In . SVG Version: 6.00 Build 0)  -->
<svg version="1.1" id="Layer_1" xmlns="http://www.w3.org/2000/svg" xmlns:xlink="http://www.w3.org/1999/xlink" x="0px" y="0px"
	 viewBox="0 0 117.8 73.4" style="enable-background:new 0 0 117.8 73.4;" xml:space="preserve">
<style type="text/css">
	.st0{display:none;}
	.st1{fill:#99999A;}
	.st2{fill:#A9BE74;}
	.st3{fill:#58585A;}
	.st4{fill:#CDCDCD;}
	.st5{fill:#B4B4B4;}
</style>
<g id="screenshot">
</g>
<g id="bkg">
</g>
<g id="Griglia" class="st0">
</g>
<g>
	<path class="st1" d="M66.9,55.5L66.9,55.5c0-4.2,3.3-7.4,7.4-7.4c1.2,0,2.4,0.3,3.4,0.9c1.7-3.7,5.4-6.2,9.8-6.2
		c5.9,0,10.7,4.8,10.7,10.8c0,0.1,0,0.2,0,0.3c3,0.9,5.2,3.7,5.2,7c0,4.1-3.3,7.3-7.4,7.3l-28.1-0.1c-3.5,0-6.3-2.9-6.3-6.4
		C61.6,58.6,63.9,56,66.9,55.5z"/>
	<g>
		<path class="st2" d="M65,73.4c0.5,0,1-0.2,1.4-0.4c1.5-0.9,2.1-2.8,1.2-4.3L49.8,37.8c-0.9-1.5-2.8-2.1-4.3-1.2
			c-1.5,0.9-2.1,2.8-1.2,4.3l17.8,30.8C62.7,72.8,63.9,73.4,65,73.4z"/>
	</g>
	<g>
		<path class="st3" d="M23.9,18.7L23.9,18.7c0-5.5,4.5-10,10-9.9c1.7,0,3.3,0.4,4.6,1.1c2.3-4.9,7.4-8.4,13.3-8.3
			c8.1,0,14.6,6.5,14.6,14.4c0,0.1,0,0.3,0,0.4c4.1,1.2,7,5,7,9.4c0,5.4-4.5,9.9-10,9.8l-38.3-0.1c-4.8,0-8.6-3.8-8.6-8.5
			C16.6,22.9,19.8,19.4,23.9,18.7z"/>
	</g>
	<g>
		<g>
			<path class="st4" d="M23.4,45.2c6.8,0,14.5-1.9,21.7-5.6l-1.2-2.4c-7.6,3.8-15.7,5.7-22.6,5.2c-6.7-0.4-11.5-3-13.6-7.1
				s-1.2-9.5,2.5-15.1C14,14.3,20.3,9,27.9,5.1l-1.2-2.4c-8.1,4-14.7,9.7-18.8,15.9C3.7,25,2.7,31.4,5.3,36.4s8.1,8.1,15.8,8.6
				C21.8,45.2,22.6,45.2,23.4,45.2z"/>
		</g>
		<g>
			<path class="st4" d="M32.2,42.8c4.3,0,8.7-1.1,12.8-3.1l-1.2-2.4c-5.3,2.7-11.2,3.5-16.5,2.3c-5.1-1.2-9.2-4.2-11.3-8.4
				c-4.4-8.8,0.9-20.4,11.9-25.9l-1.2-2.4c-5.9,3-10.5,7.6-13,13.1c-2.5,5.6-2.6,11.5-0.1,16.4c2.5,5,7.2,8.4,13.2,9.8
				C28.6,42.6,30.4,42.8,32.2,42.8z"/>
		</g>
		<g>
			<path class="st4" d="M13.6,40c0.2,0,0.5,0,0.8,0c4.2-0.1,9.5-1.3,15.3-3.3l-0.9-2.5C16.7,38.4,9,38,7.7,35.3s3-9.1,13.8-16.3
				l-0.6-3C12,22,2.4,31,5.3,36.5C6.1,38.2,8.2,40,13.6,40z"/>
		</g>
		<g>
			
				<rect x="5.5" y="30.5" transform="matrix(0.8943 -0.4475 0.4475 0.8943 -12.6716 9.9694)" class="st4" width="18.6" height="2.7"/>
		</g>
	</g>
	<g>
		<path class="st2" d="M31.5,37.9c-3.3-2.4-6.1-5.7-8.1-9.6c-2.5-5.1-3.4-10.6-2.5-15.5c0.9-5.2,3.7-9.3,7.9-11.3
			c1.9-0.9,4-1.4,6.1-1.4c3.5,0,7.2,1.3,10.5,3.6c3.3,2.4,6.1,5.7,8.1,9.6c2.5,5.1,3.4,10.6,2.5,15.5c-0.9,5.2-3.7,9.3-7.9,11.3
			c-1.9,0.9-4,1.4-6.1,1.4C38.5,41.6,34.9,40.3,31.5,37.9z M31,5.7c-2.7,1.4-4.6,4.1-5.3,7.8c-0.7,3.9,0,8.4,2.1,12.5
			C31,32.3,36.7,36.6,42,36.6c1.4,0,2.7-0.3,3.9-0.9c2.7-1.4,4.6-4.1,5.3-7.8c0.7-3.9,0-8.4-2.1-12.5C45.9,9.1,40.2,4.8,34.9,4.8
			C33.5,4.8,32.2,5.1,31,5.7z"/>
	</g>
	<g>
		<g>
			<path class="st3" d="M38.5,9.9c2.3-4.9,7.4-8.4,13.3-8.3c8.1,0,14.6,6.5,14.6,14.4c0,0.1,0,0.3,0,0.4c4.1,1.2,7,5,7,9.4
				c0,5.4-4.5,9.9-10,9.8h-10h-10C44.7,35.8,37.5,9.4,38.5,9.9z"/>
		</g>
	</g>
	<g>
		<path class="st5" d="M60,12.5c0.4,0,0.7,0,1,0.1c0.3-3.5,3.1-6.2,6.6-6.2c3.6,0,6.5,2.9,6.6,6.6c0.6-0.3,1.3-0.5,2-0.5
			c2.6,0,4.6,2.1,4.6,4.7c0,2.6-2.1,4.7-4.7,4.7H59.9l0,0l0,0c-2.6,0-4.6-2.1-4.6-4.7C55.4,14.6,57.5,12.5,60,12.5z"/>
	</g>
	<g>
		<path class="st5" d="M3.5,44.8c0.3,0,0.5,0,0.8,0.1c0.2-2.6,2.3-4.6,4.9-4.6c2.7,0,4.9,2.2,4.9,4.9c0.5-0.2,1-0.4,1.5-0.4
			c1.9,0,3.5,1.6,3.5,3.5c0,1.9-1.6,3.5-3.5,3.5H3.5l0,0l0,0c-1.9,0-3.5-1.6-3.5-3.5C0,46.3,1.6,44.8,3.5,44.8z"/>
	</g>
	<g>
		<path class="st5" d="M95.9,42.6c0.4,0,0.7,0,1.1,0.1c0.3-3.6,3.2-6.5,6.9-6.5c3.8,0,6.8,3.1,6.9,6.9c0.6-0.3,1.4-0.5,2.1-0.5
			c2.7,0,4.9,2.2,4.9,4.9c0,2.7-2.2,4.9-4.9,4.9h-17l0,0l0,0c-2.7,0-4.9-2.2-4.8-4.9C91,44.8,93.2,42.6,95.9,42.6z"/>
	</g>
</g>
</svg>
