<?xml version="1.0" encoding="utf-8"?>
<!-- Generator: Adobe Illustrator 21.1.0, SVG Export Plug-In . SVG Version: 6.00 Build 0)  -->
<svg version="1.1" id="Layer_1" xmlns="http://www.w3.org/2000/svg" xmlns:xlink="http://www.w3.org/1999/xlink" x="0px" y="0px"
	 viewBox="0 0 600 207" enable-background="new 0 0 600 207" xml:space="preserve">
<g>
	<g>
		<g>
			<g id="XMLID_6991_">
				<path id="XMLID_6992_" fill="#F4D5AE" d="M187.056,196.832c19.631,0,35.603-15.962,35.615-35.593l-10.841-0.006
					c-0.006,13.654-11.12,24.759-24.772,24.759c-0.004,0-0.01,0-0.014,0c-6.615-0.004-12.836-2.585-17.51-7.265
					c-3.612-3.615-5.968-8.147-6.853-13.071c-0.463-2.579-2.685-4.47-5.305-4.493h0c-3.416-0.031-6.023,3.059-5.407,6.42
					c1.298,7.078,4.719,13.624,9.893,18.804c6.722,6.73,15.663,10.439,25.176,10.445
					C187.042,196.832,187.052,196.832,187.056,196.832z"/>
			</g>
			
				<ellipse id="XMLID_6990_" transform="matrix(0.9854 -0.1704 0.1704 0.9854 -25.4692 39.2755)" fill="#F4D5AE" cx="216.009" cy="167.972" rx="10.507" ry="10.508"/>
		</g>
		<g id="XMLID_6984_">
			<path fill="#F2F2F2" d="M173.802,163.043c0-6.04,3.24-11.322,8.075-14.208c-0.543-0.354-0.906-0.513-0.906-0.513l-6.53-2.391
				v-0.04l-19.548-7.454l-1.49,0.338l-18.649,7.166v0.008l-6.549,2.373c0,0-0.411,0.182-1.01,0.583
				c4.769,2.901,7.955,8.148,7.955,14.138c0,7.798-5.399,14.332-12.663,16.076v28.355h64.203v-28.303
				C179.314,177.509,173.802,170.921,173.802,163.043z"/>
			<rect id="XMLID_6989_" x="150.844" y="133.564" fill="#F4D5AE" width="7.466" height="8.304"/>
			<g id="XMLID_6987_" opacity="0.2">
				<path id="XMLID_6988_" fill="#666666" d="M158.311,133.564v4.487c-1.345,0.258-2.736,0.393-4.159,0.388
					c-1.124-0.004-2.23-0.094-3.308-0.264v-4.611H158.311z"/>
			</g>
			<g id="XMLID_6985_">
				<path id="XMLID_6986_" fill="#F4D5AE" d="M154.548,157.663c-8.281,0-15.345-5.247-18.046-12.591l16.985-6.636h1.801l17.365,6.6
					C169.995,152.464,162.892,157.663,154.548,157.663z"/>
			</g>
			<g>
				<path fill="#F4D5AE" d="M135.149,163.043c0-5.991-3.186-11.237-7.955-14.138c-1.641,1.1-4.708,3.866-4.708,9.19v21.025
					C129.75,177.375,135.149,170.841,135.149,163.043z"/>
				<path fill="#F4D5AE" d="M181.878,148.835c-4.835,2.886-8.075,8.168-8.075,14.208c0,7.879,5.511,14.466,12.888,16.128v-21.077
					C186.69,152.657,183.49,149.886,181.878,148.835z"/>
			</g>
		</g>
		<g id="XMLID_6971_">
			<g id="XMLID_6976_">
				<g id="XMLID_6977_">
					<ellipse id="XMLID_6983_" fill="#F4D5AD" cx="134.64" cy="110.157" rx="4.638" ry="4.646"/>
					<ellipse id="XMLID_6982_" fill="#F4D5AD" cx="173.606" cy="110.157" rx="4.638" ry="4.646"/>
					<g id="XMLID_6978_">
						<path id="XMLID_6981_" fill="#F4D5AD" d="M174.57,114.476c0.042,11.266-9.043,20.432-20.29,20.473l0,0
							c-11.246,0.042-20.393-9.06-20.436-20.326l-0.05-14.19c-0.041-11.268,9.041-20.433,20.285-20.475l0,0
							c11.247-0.041,20.399,9.059,20.44,20.325L174.57,114.476z"/>
						<g id="XMLID_6979_">
							<path id="XMLID_6980_" fill="#FFFFFF" d="M154.223,128.872c7.157,0.005,12.966-4.858,12.972-10.864l-25.924-0.022
								C141.265,123.993,147.064,128.867,154.223,128.872z"/>
						</g>
					</g>
				</g>
			</g>
			<g id="XMLID_6974_">
				<path id="XMLID_6975_" fill="#AB997A" d="M174.824,100.104c-0.223-10.233-7.907-18.625-17.832-19.954
					c-2.345,6.534,2.003,14.943,10.36,19.451c2.454,1.325,5.004,2.174,7.484,2.574v-2.071H174.824z"/>
			</g>
			<g id="XMLID_6972_">
				<path id="XMLID_6973_" fill="#988267" d="M148.263,104.098c11.48-1.286,19.973-9.587,18.967-18.541
					c-0.041-0.38-0.107-0.752-0.182-1.12c-3.516-2.801-7.969-4.479-12.815-4.479c-11.369,0-20.583,9.209-20.602,20.572l0,0v0.811
					C137.641,103.618,142.797,104.711,148.263,104.098z"/>
			</g>
		</g>
		<g>
			<g id="XMLID_6969_">
				<path id="XMLID_6970_" fill="#85B873" d="M222.956,137.474l0.001-0.002c4.26,3.495,4.029,6.1,4.029,6.1
					c0.099,2.103-1.488,3.85-3.548,3.9l-0.002,0c-2.062,0.049-3.812-1.616-3.913-3.72
					C219.524,143.754,219.041,141.166,222.956,137.474z"/>
			</g>
			
				<ellipse transform="matrix(0.9123 -0.4095 0.4095 0.9123 -44.3161 102.3935)" fill="#E5A176" cx="216.92" cy="154.67" rx="12.68" ry="12.68"/>
			<path id="XMLID_6968_" fill="#85B873" d="M228.013,142.271c0,0,3.372-0.672,8.548,4.408c-0.002,0.002-0.002,0.003-0.002,0.003
				c-4.277,5.64-7.732,5.378-7.732,5.378c-2.766,0.164-5.191-1.893-5.415-4.596l0-0.001
				C223.187,144.761,225.248,142.437,228.013,142.271z"/>
		</g>
		<g>
			<g id="XMLID_6966_">
				<path id="XMLID_6967_" fill="#85B873" d="M180.649,135.526l-0.002-0.002c6.666-3.318,9.75-1.592,9.75-1.592
					c2.648,1.041,3.923,3.965,2.844,6.532l-0.001,0.003c-1.08,2.569-4.101,3.806-6.751,2.765
					C186.49,143.232,183.034,142.395,180.649,135.526z"/>
			</g>
			<circle fill="#F7B581" cx="198.508" cy="152.483" r="17.135"/>
			<path id="XMLID_6965_" fill="#85B873" d="M189.361,131.946c0,0,1.038-4.53,10.164-8.1c0.002,0.004,0.003,0.004,0.003,0.004
				c4.586,8.394,2.352,12.508,2.352,12.508c-1.328,3.5-5.206,5.353-8.662,4.132l-0.001-0.001
				C189.759,139.273,188.035,135.447,189.361,131.946z"/>
		</g>
		<g id="XMLID_6961_">
			
				<ellipse id="XMLID_6964_" transform="matrix(0.9854 -0.1705 0.1705 0.9854 -25.8929 34.4777)" fill="#F4D5AE" cx="187.763" cy="167.972" rx="10.507" ry="10.508"/>
			<g id="XMLID_6962_">
				<path id="XMLID_6963_" fill="#F4D5AE" d="M158.191,196.832c19.631,0,35.604-15.962,35.615-35.593l-10.839-0.006
					c-0.008,13.654-11.12,24.759-24.774,24.759c-0.005,0-0.008,0-0.013,0c-6.617-0.004-12.836-2.585-17.511-7.265
					c-3.611-3.615-5.968-8.147-6.852-13.071c-0.463-2.579-2.685-4.469-5.305-4.493h0c-3.416-0.031-6.023,3.06-5.407,6.42
					c1.299,7.078,4.721,13.624,9.895,18.803c6.721,6.73,15.662,10.439,25.174,10.445
					C158.18,196.832,158.188,196.832,158.191,196.832z"/>
			</g>
		</g>
	</g>
	<g>
		<g>
			<g>
				<g>
					<rect x="187.522" y="28.061" fill="#8AB580" width="62.645" height="82.751"/>
					<rect x="218.398" y="9.921" fill="#9AC98D" width="138.972" height="82.748"/>
					<polygon fill="#769B6F" points="218.398,92.669 250.167,110.813 250.167,92.669 					"/>
				</g>
			</g>
			<g>
				<g>
					<path fill="#6AB98C" d="M252.836,40.119h-21.17l0.009,3.152h20.094C252.053,42.181,252.416,41.139,252.836,40.119z"/>
					<path fill="#6AB98C" d="M291.919,49.454c0.015,0.524,0.048,1.036,0.048,1.571c0.015,0.533-0.033,1.056-0.052,1.577
						l26.471-0.003v-3.146H291.919z"/>
					<path fill="#6AB98C" d="M250.735,51.026c0.003-0.527,0.039-1.048,0.069-1.565h-26.483l0.009,3.142h26.471
						C250.782,52.082,250.738,51.561,250.735,51.026z"/>
					<path fill="#6AB98C" d="M311.033,43.267l0.007-3.152H289.88c0.417,1.015,0.769,2.056,1.067,3.152H311.033z"/>
					<path fill="#6AB98C" d="M289.88,61.95l21.164-0.006l-0.003-3.155h-20.094C290.656,59.876,290.288,60.924,289.88,61.95z"/>
					<path fill="#6AB98C" d="M251.769,58.796l-20.094,0.003l0.002,3.149l21.152-0.006C252.418,60.936,252.06,59.888,251.769,58.796z
						"/>
				</g>
			</g>
			<path fill="#6AB98C" d="M291.968,51.029c0.002,13.28-9.221,24.046-20.613,24.053c-11.385,0-20.612-10.772-20.612-24.048
				c-0.006-13.294,9.227-24.053,20.607-24.055C282.734,26.978,291.965,37.737,291.968,51.029z"/>
			<path fill="#6AB98C" d="M218.413,92.669l115.608-0.012h23.349l-0.011-23.337V33.226L357.35,9.901l-23.332,0.006h-115.62v5.031
				l0.494,0.009l114.64-0.009c0.317,4.43,2.505,9.084,6.107,12.682c3.638,3.621,8.179,5.813,12.653,6.121l-0.01,35.074
				c-4.455,0.311-9.005,2.493-12.643,6.124c-3.608,3.619-5.783,8.252-6.101,12.67l-114.635,0.006h-0.504L218.413,92.669z"/>
			<path fill="#5BA17B" d="M250.167,105.937l-38.818,0.096c-0.325-4.421-2.496-9.06-6.099-12.667
				c-3.653-3.628-8.188-5.81-12.665-6.115V52.169c4.477-0.314,9.025-2.496,12.662-6.118c3.608-3.604,5.768-8.252,6.091-12.685h7.058
				v-5.04h-7.552l-23.323,0.006l0.006,23.331l0.003,36.097l-0.003,23.328h23.332h39.307"/>
		</g>
		<g>
			<rect x="348.689" y="98.66" fill="#FDD36D" width="68.618" height="14.446"/>
			<rect x="328.53" y="69.769" fill="#FDD36D" width="68.618" height="14.446"/>
			<rect x="338.763" y="84.214" fill="#D8C363" width="68.618" height="14.446"/>
			<rect x="338.763" y="55.323" fill="#D8C363" width="68.618" height="14.446"/>
			<g>
				<circle fill="#FDD36D" cx="390.846" cy="27.954" r="28.007"/>
				<circle fill="#D8C363" cx="390.846" cy="27.954" r="19.804"/>
			</g>
		</g>
	</g>
	<g>
		<g id="XMLID_6998_">
			
				<ellipse id="XMLID_7001_" transform="matrix(0.1705 -0.9854 0.9854 0.1705 -144.8805 144.3754)" fill="#B59D8C" cx="13.313" cy="158.241" rx="13.794" ry="13.792"/>
			<g id="XMLID_6999_">
				<path id="XMLID_7000_" fill="#B59D8C" d="M52.132,196.126c-25.769,0-46.737-20.953-46.751-46.723l14.228-0.008
					c0.011,17.924,14.597,32.501,32.52,32.501c0.006,0,0.011,0,0.017,0c8.685-0.005,16.85-3.393,22.987-9.536
					c4.74-4.745,7.834-10.695,8.995-17.159c0.608-3.386,3.524-5.867,6.964-5.898h0c4.485-0.04,7.907,4.016,7.097,8.428
					c-1.705,9.292-6.197,17.884-12.99,24.683c-8.823,8.835-20.559,13.703-33.045,13.712
					C52.146,196.126,52.136,196.126,52.132,196.126z"/>
			</g>
		</g>
		<g>
			<g>
				<g>
					<g>
						<g>
							<path fill="#CCD47D" d="M29.737,137.241c-0.776,0-2.047-0.624-2.047-1.393V89.711c0-0.769,1.271-1.393,2.047-1.393
								c0.776,0,2.047,0.624,2.047,1.393v46.138C31.784,136.618,30.513,137.241,29.737,137.241z"/>
						</g>
						<g>
							<path fill="#88C38E" d="M43.071,110.691c2.955-2.941,3.575-7.081,1.383-9.245c-2.192-2.165-6.364-1.535-9.32,1.406
								c0,0-4.028,3.255-4.728,12.574C39.803,114.696,43.071,110.691,43.071,110.691z"/>
						</g>
						<path fill="#88C38E" d="M45.008,83.042c-2.192-2.165-6.364-1.535-9.32,1.406c0,0-2.391,1.937-3.809,7.088
							c-0.374-11.325-4.746-16.044-4.746-16.044c-4.054-5.401-10.603-7.373-14.627-4.404c-4.025,2.969-4.001,9.754,0.053,15.156
							c0,0,4.055,7.069,18.332,10.475c-0.013,0.148,0.011-0.151,0,0c9.397-0.729,12.733-4.432,12.733-4.432
							C46.58,89.346,47.199,85.207,45.008,83.042z"/>
					</g>
				</g>
			</g>
			<rect x="17.633" y="122.383" fill="#666667" width="23.931" height="34.251"/>
		</g>
		<g id="XMLID_6997_">
			<g id="XMLID_25505_">
				<g id="XMLID_25506_">
					<circle fill="#8D7C6F" cx="115.235" cy="70.678" r="5.241"/>
					<circle fill="#8D7C6F" cx="115.235" cy="79.064" r="5.241"/>
					<circle fill="#8D7C6F" cx="113.663" cy="63.34" r="5.241"/>
					<circle fill="#8D7C6F" cx="109.994" cy="56.527" r="5.241"/>
					<circle fill="#8D7C6F" cx="103.704" cy="51.285" r="5.241"/>
					<circle fill="#8D7C6F" cx="96.366" cy="47.092" r="5.241"/>
					<circle fill="#8D7C6F" cx="87.98" cy="44.996" r="5.241"/>
					<circle fill="#8D7C6F" cx="60.726" cy="70.678" r="5.241"/>
					<circle fill="#8D7C6F" cx="60.726" cy="79.064" r="5.241"/>
					<circle fill="#8D7C6F" cx="62.298" cy="63.34" r="5.241"/>
					<circle fill="#8D7C6F" cx="65.967" cy="56.527" r="5.241"/>
					<circle fill="#8D7C6F" cx="72.257" cy="51.285" r="5.241"/>
					<circle fill="#8D7C6F" cx="79.595" cy="47.092" r="5.241"/>
					<circle fill="#8D7C6F" cx="87.98" cy="44.996" r="5.241"/>
					<g id="XMLID_25508_">
						<g id="XMLID_25509_">
							<path id="XMLID_25523_" fill="#FDD68C" d="M45.364,207.474v-57.36c0-9.679,7.616-13.018,7.616-13.018l8.724-3.159v-0.012
								l24.838-9.543l1.986-0.451l26.034,9.929v0.054l8.699,3.183c0,0,7.616,3.338,7.616,13.018v57.36H45.364z"/>
							<rect id="XMLID_25522_" x="83.132" y="117.441" fill="#B59D8C" width="9.946" height="11.061"/>
							<g id="XMLID_25520_" opacity="0.2">
								<path id="XMLID_25521_" fill="#666666" d="M93.078,117.441v5.977c-1.794,0.343-3.645,0.523-5.54,0.516
									c-1.499-0.005-2.97-0.126-4.406-0.352v-6.142H93.078z"/>
							</g>
							<g id="XMLID_25512_">
								<g id="XMLID_25513_">
									<ellipse id="XMLID_25519_" fill="#B59D8C" cx="113.785" cy="86.766" rx="6.195" ry="6.205"/>
									<ellipse id="XMLID_25518_" fill="#B59D8C" cx="61.741" cy="86.766" rx="6.194" ry="6.205"/>
									<g id="XMLID_25514_">
										<path id="XMLID_25517_" fill="#B59D8C" d="M60.454,92.148c-0.055,15.047,12.078,27.291,27.1,27.345l0,0
											c15.019,0.055,27.236-12.101,27.293-27.148l0.069-18.954c0.053-15.049-12.076-27.292-27.095-27.347l0,0
											c-15.022-0.055-27.244,12.1-27.299,27.146L60.454,92.148z"/>
										<g id="XMLID_25515_">
											<path id="XMLID_25516_" fill="#FFFFFF" d="M87.629,111.375c-9.559,0.006-17.319-6.489-17.325-14.511l34.625-0.028
												C104.938,104.859,97.191,111.368,87.629,111.375z"/>
										</g>
									</g>
								</g>
							</g>
							<g id="XMLID_25510_">
								<path id="XMLID_25511_" fill="#B59D8C" d="M88.078,141.307c-7.485,0-13.867-4.742-16.309-11.379l15.351-5.997h1.627
									l15.694,5.964C102.038,136.608,95.621,141.307,88.078,141.307z"/>
							</g>
						</g>
					</g>
					<path id="XMLID_25507_" fill="#8D7C6F" d="M63.766,59.083c4.762-7.79,13.842-13.526,23.629-13.563
						c0.074,0,0.147,0.527,0.222,0.527c0.074,0,0.147-0.003,0.222-0.003c9.787,0.036,19.391,5.249,24.152,13.039
						c2.546,4.165,4.01,9.065,3.991,14.309l-1.075,7.451c-1.375-6.04-4.802-11.294-9.513-14.995
						c-4.617,4.026-10.649,6.47-17.256,6.47c-0.175,0-0.347-0.008-0.52-0.011c-0.174,0.003-0.347,0.011-0.521,0.011
						c-6.607,0-12.639-2.444-17.255-6.47c-4.711,3.701-8.139,8.956-9.513,14.995l-0.551-7.451
						C59.757,68.148,61.221,63.248,63.766,59.083z"/>
				</g>
			</g>
		</g>
		<g id="XMLID_6993_">
			
				<ellipse id="XMLID_6996_" transform="matrix(0.1705 -0.9854 0.9854 0.1705 -115.7785 173.7049)" fill="#B59D8C" cx="45.284" cy="155.62" rx="13.794" ry="13.792"/>
			<g id="XMLID_6994_">
				<path id="XMLID_6995_" fill="#B59D8C" d="M84.103,193.505c-25.769,0-46.737-20.953-46.751-46.723l14.228-0.008
					c0.011,17.924,14.597,32.501,32.52,32.501c0.006,0,0.011,0,0.017,0c8.685-0.005,16.85-3.393,22.987-9.536
					c4.74-4.745,7.834-10.695,8.995-17.159c0.608-3.386,3.524-5.867,6.964-5.898h0c4.485-0.04,7.907,4.016,7.097,8.428
					c-1.705,9.292-6.197,17.884-12.99,24.683c-8.823,8.835-20.559,13.703-33.045,13.712
					C84.118,193.505,84.107,193.505,84.103,193.505z"/>
			</g>
		</g>
	</g>
	<g>
		<polygon id="XMLID_7049_" fill="#646465" points="430.193,110.459 434.477,108.389 473.881,108.182 473.881,156.691 
			430.21,156.691 		"/>
		<path id="XMLID_7048_" fill="#CCB09E" d="M425.273,191.273l10.174-24.829c0-6.059-5.406-18.323-5.406-18.323l21.013-7.961
			l1.245-0.283l21.743,8.244c0,0-1.079,7.937-1.079,13.995l5.846,29.156H425.273z"/>
		<rect id="XMLID_7047_" x="448.918" y="135.817" fill="#CCB09E" width="6.227" height="6.921"/>
		<g id="XMLID_7045_" opacity="0.2">
			<path id="XMLID_7046_" fill="#666666" d="M455.145,135.817v3.741c-1.122,0.215-2.282,0.327-3.468,0.322
				c-0.941-0.003-1.859-0.078-2.759-0.219v-3.844H455.145z"/>
		</g>
		<g id="XMLID_7037_">
			<g id="XMLID_7038_">
				<ellipse id="XMLID_7044_" fill="#CCB09E" cx="468.109" cy="116.611" rx="3.879" ry="3.884"/>
				<ellipse id="XMLID_7043_" fill="#CCB09E" cx="435.527" cy="116.611" rx="3.877" ry="3.884"/>
				<g id="XMLID_7039_">
					<path id="XMLID_7042_" fill="#CCB09E" d="M434.721,119.981c-0.035,9.42,7.562,17.085,16.965,17.12l0,0
						c9.404,0.035,17.051-7.575,17.088-16.997l0.045-11.866c0.03-9.422-7.562-17.085-16.966-17.121l0,0
						c-9.403-0.035-17.054,7.575-17.09,16.994L434.721,119.981z"/>
					<g id="XMLID_7040_">
						<path id="XMLID_7041_" fill="#FFFFFF" d="M451.734,132.017c-5.986,0.004-10.843-4.063-10.846-9.085l21.678-0.018
							C462.571,127.939,457.721,132.013,451.734,132.017z"/>
					</g>
				</g>
			</g>
		</g>
		<g id="XMLID_7035_">
			<path id="XMLID_7036_" fill="#F7B581" d="M430.041,148.121l4.004-1.517c3.382,6.272,10.015,10.534,17.641,10.534
				c7.719,0,14.412-4.367,17.759-10.759l4.597,1.742c0,0,4.768,2.09,4.768,8.149v50.458h-53.536V156.27
				C425.273,150.211,430.041,148.121,430.041,148.121z"/>
		</g>
		<path id="XMLID_7034_" fill="#646465" d="M430.229,105.587c0-5.511,2.049-10.544,5.422-14.383
			c3.996-4.552,9.856-7.429,16.39-7.429c11.859,0,21.501,9.463,21.798,21.25l0.055,0.028v16.906h-0.013
			c-0.007,0.22-0.022,0.439-0.035,0.656c-0.717-7.088-7.739-9.403-13.728-11.288c-3.746-1.18-7.327-3.148-10.278-5.741
			c-0.705-0.618-1.378-1.275-2.004-1.964c-0.88,0.728-1.827,1.385-2.822,1.964c-1.413,0.823-2.924,1.492-4.472,1.98
			c-4.514,1.421-9.811,3.166-10.35,8.511c-0.009-0.168-0.021-0.33-0.027-0.497h-0.008L430.229,105.587z"/>
		<g id="XMLID_7032_">
			<path id="XMLID_7033_" fill="#CCB09E" d="M452.024,145.083c-2.38,0-4.462-1.27-5.614-3.163l4.644-1.76l1.6-0.147l4.996,1.893
				C456.494,143.807,454.41,145.083,452.024,145.083z"/>
		</g>
		<g>
			<path fill="#DD816A" d="M434.045,146.604l-4.004,1.517c0,0-4.768,2.09-4.768,8.149v50.458l26.413-49.589
				C444.06,157.138,437.427,152.877,434.045,146.604z"/>
		</g>
		<g id="XMLID_7024_">
			<g id="XMLID_7025_">
				<g id="XMLID_7026_">
					<g id="XMLID_7030_">
						<path id="XMLID_7031_" fill="#CCB09E" d="M425.379,195.61c-15.057-0.024-27.289-12.294-27.266-27.353l9.405,0.018
							c-0.017,9.871,8.005,17.916,17.877,17.932"/>
					</g>
					<g id="XMLID_7027_">
						<g id="XMLID_7028_">
							
								<ellipse id="XMLID_7029_" transform="matrix(0.8183 -0.5748 0.5748 0.8183 -27.2166 263.2891)" fill="#CCB09E" cx="402.808" cy="174.69" rx="9.114" ry="9.114"/>
						</g>
					</g>
				</g>
			</g>
		</g>
		<circle fill="#DD816A" cx="451.726" cy="111.53" r="2.196"/>
		<g id="XMLID_7004_">
			<g id="XMLID_7020_">
				<path id="XMLID_7023_" fill="#CDD67E" d="M406.388,109.275c0,0-0.001-0.002-0.001-0.003c-6.492,1.427-7.668,4.355-7.668,4.355
					c-1.257,2.206-0.506,4.951,1.682,6.135h0.001c2.189,1.183,4.982,0.348,6.241-1.858
					C406.644,117.904,408.575,115.385,406.388,109.275z"/>
				<path id="XMLID_7022_" fill="#F7B581" d="M419.56,133.614c-0.888-2.716-2.291-5.317-3.742-7.574
					c-2.938-4.557-7.326-11.273-13.433-11.946c-6.563-0.725-10.395,5.81-8.622,11.395c0.958,3.021,1.609,5.617,0.186,8.658
					c-0.826,1.765-1.955,3.474-2.34,5.401c-0.752,3.766,1.168,8.362,4.084,10.71c5.088,4.101,13.506,3.638,18.647-0.328
					C419.703,145.803,421.607,139.883,419.56,133.614z"/>
				<path id="XMLID_7021_" fill="#CDD67E" d="M398.325,111.665c0,0-3.256-2.567-11.597,0.066c0,0-0.001,0.002-0.001,0.004
					c1.514,8.402,5.371,10.01,5.371,10.01c2.883,1.687,6.616,0.803,8.335-1.979l0.002-0.002
					C402.153,116.983,401.21,113.357,398.325,111.665z"/>
			</g>
			<g id="XMLID_7005_">
				<g id="XMLID_7015_">
					<path id="XMLID_7019_" fill="#C57B6F" d="M430.224,160.848c-2.414,2.288-5.292,4.176-8.031,5.683
						c-5.534,3.044-13.754,7.492-20.386,4.798c-7.123-2.896-7.427-11.717-2.517-16.455c2.657-2.564,4.764-4.865,4.992-8.771
						c0.131-2.265-0.079-4.642,0.594-6.83c1.315-4.275,5.833-7.919,10.125-8.71c7.482-1.381,15.85,3.76,18.923,10.672
						C437.126,148.435,435.794,155.558,430.224,160.848z"/>
					<path id="XMLID_7018_" fill="#85B873" d="M370.184,136.838c0,0-0.001-0.003-0.003-0.006c4.472-5.441,7.802-5.14,7.802-5.14
						c2.689-0.129,4.92,1.903,4.982,4.537v0.001c0.062,2.635-2.068,4.873-4.758,5.001
						C378.208,141.231,374.902,141.844,370.184,136.838z"/>
					<path id="XMLID_7017_" fill="#DF8A7D" d="M386.827,160.984c-2.135-2.144-3.916-4.719-5.349-7.177
						c-2.893-4.965-7.123-12.341-4.82-18.434c2.474-6.544,10.49-7.017,14.91-2.657c2.391,2.359,4.531,4.224,8.088,4.344
						c2.064,0.068,4.221-0.176,6.226,0.387c3.918,1.1,7.332,5.128,8.149,9.014c1.423,6.774-3.066,14.501-9.283,17.449
						C398.272,166.985,391.762,165.932,386.827,160.984z"/>
					<path id="XMLID_7016_" fill="#85B873" d="M376.322,130.374c0,0-0.859-4.312,5.641-10.923c0.002,0.001,0.002,0.002,0.004,0.003
						c7.207,5.471,6.867,9.885,6.867,9.885c0.208,3.536-2.424,6.635-5.878,6.921l-0.004,0.001
						C379.499,136.545,376.53,133.911,376.322,130.374z"/>
				</g>
				<g id="XMLID_7006_">
					<g id="XMLID_7012_">
						<g id="XMLID_7013_">
							<path id="XMLID_7014_" fill="#E0BF7E" d="M441.136,149.898v9.257c-1.889,9.494-10.285,16.669-20.403,16.669h-3.685h-0.196
								h-11.457c-10.921,0-19.828-8.358-20.716-18.973v-6.953H441.136z"/>
						</g>
					</g>
					<g id="XMLID_7009_">
						<g id="XMLID_7010_">
							<path id="XMLID_7011_" fill="#FDD68C" d="M427.099,149.898v9.257c-1.889,9.494-10.285,16.669-20.403,16.669h-3.684h-0.197
								h-4.978c-10.922,0-19.828-8.358-20.716-18.973v-6.953H427.099z"/>
						</g>
					</g>
					<g id="XMLID_7007_">
						<path id="XMLID_7008_" fill="#87776B" d="M374.492,150.565c0.002-1.726,1.4-3.124,3.127-3.124h63.413
							c1.727,0,3.127,1.398,3.127,3.124v0.002l0,0c-0.002,1.727-1.4,3.126-3.127,3.127l-63.413-0.001
							c-1.726,0-3.126-1.399-3.126-3.126h-0.001V150.565z"/>
					</g>
				</g>
			</g>
		</g>
		<g id="XMLID_6956_">
			<g id="XMLID_6957_">
				<g id="XMLID_7002_">
					<path id="XMLID_7003_" fill="#CCB09E" d="M451.101,181.026c-9.872-0.016-17.893-8.061-17.877-17.932l-9.405-0.018
						c-0.023,15.058,12.209,27.329,27.266,27.353"/>
				</g>
				<g id="XMLID_6958_">
					<g id="XMLID_6959_">
						
							<ellipse id="XMLID_6960_" transform="matrix(0.8183 -0.5748 0.5748 0.8183 -19.5693 277.1145)" fill="#CCB09E" cx="428.515" cy="169.509" rx="9.114" ry="9.114"/>
					</g>
				</g>
			</g>
		</g>
	</g>
	<g>
		<g id="XMLID_6873_">
			<g id="XMLID_6954_">
				<path id="XMLID_6955_" fill="#AC9686" d="M562.509,170.106c9.913-3.616,18.452-11.004,23.249-21.301
					c9.592-20.601,0.636-45.162-19.961-54.754l-5.991,12.864c13.505,6.29,19.377,22.394,13.089,35.899
					c-6.29,13.504-22.394,19.375-35.897,13.089l-5.993,12.861C541.305,173.56,552.594,173.719,562.509,170.106z"/>
			</g>
			<g id="XMLID_6877_">
				<g id="XMLID_6903_">
					<g id="XMLID_6904_">
						<g id="XMLID_6905_">
							<g id="XMLID_6952_">
								<path id="XMLID_6953_" fill="#EDD192" d="M503.424,87.871c-22.683,0-42.908-4.424-56.11-11.34h112.217
									C546.327,83.447,526.104,87.871,503.424,87.871z"/>
							</g>
							<path id="XMLID_6951_" fill="#FFFFFF" d="M463.316,206.727v-53.476c0-9.098,7.158-12.237,7.158-12.237l8.201-2.97v-0.011
								l23.346-8.97l1.865-0.425l24.473,9.334v0.051l8.176,2.991c0,0,7.16,3.138,7.16,12.237v53.476H463.316z"/>
							<rect id="XMLID_6950_" x="498.817" y="122.539" fill="#AC9686" width="9.349" height="10.398"/>
							<g id="XMLID_6948_" opacity="0.2">
								<path id="XMLID_6949_" fill="#666666" d="M508.165,122.539v5.618c-1.688,0.322-3.427,0.493-5.207,0.485
									c-1.411-0.005-2.792-0.118-4.142-0.33v-5.774H508.165z"/>
							</g>
							<g id="XMLID_6940_">
								<g id="XMLID_6941_">
									<ellipse id="XMLID_6947_" fill="#AC9686" cx="527.631" cy="93.4" rx="5.823" ry="5.834"/>
									<ellipse id="XMLID_6946_" fill="#AC9686" cx="478.71" cy="93.4" rx="5.822" ry="5.834"/>
									<g id="XMLID_6942_">
										<path id="XMLID_6945_" fill="#AC9686" d="M477.498,98.764c-0.052,14.144,11.355,25.653,25.475,25.704l0,0
											c14.118,0.052,25.6-11.374,25.655-25.518l0.064-17.817c0.05-14.146-11.35-25.653-25.469-25.706l0,0
											c-14.12-0.051-25.608,11.374-25.66,25.517L477.498,98.764z"/>
										<g id="XMLID_6943_">
											<path id="XMLID_6944_" fill="#FFFFFF" d="M503.044,116.839c-8.985,0.006-16.279-6.101-16.285-13.641l32.548-0.028
												C519.312,110.713,512.031,116.831,503.044,116.839z"/>
										</g>
									</g>
								</g>
							</g>
							<g id="XMLID_6927_">
								<g id="XMLID_6938_">
									<path id="XMLID_6939_" fill="#6AADDB" d="M474.436,206.727v-50.236c0-3.997,3.242-7.235,7.236-7.235h43.564
										c3.997,0,7.235,3.238,7.235,7.235v50.236H474.436z"/>
								</g>
								<g id="XMLID_6936_">
									<path id="XMLID_6937_" fill="#6694CB" d="M487.649,166.032v24.045c0,2.175,1.763,3.939,3.939,3.939h23.728
										c2.177,0,3.942-1.764,3.942-3.939v-24.045"/>
								</g>
								<g id="XMLID_6934_">
									<path id="XMLID_6935_" fill="#6694CB" d="M528.096,137.893v16.502c0,2.462-1.995,4.455-4.453,4.455
										c-2.461,0-4.457-1.994-4.457-4.455v-19.921L528.096,137.893z"/>
								</g>
								<g id="XMLID_6932_">
									<circle id="XMLID_6933_" fill="#FFFFFF" cx="523.641" cy="154.214" r="1.994"/>
								</g>
								<g id="XMLID_6930_">
									<path id="XMLID_6931_" fill="#6694CB" d="M478.81,137.893v16.502c0,2.462,1.996,4.455,4.455,4.455
										c2.459,0,4.456-1.994,4.456-4.455v-19.921L478.81,137.893z"/>
								</g>
								<g id="XMLID_6928_">
									<circle id="XMLID_6929_" fill="#FFFFFF" cx="483.264" cy="154.214" r="1.994"/>
								</g>
							</g>
							<g id="XMLID_6925_">
								<path id="XMLID_6926_" fill="#AC9686" d="M503.474,139.377c-4.626,0-8.569-2.931-10.078-7.031l9.486-3.707h1.004
									l9.699,3.686C512.099,136.474,508.135,139.377,503.474,139.377z"/>
							</g>
							<g id="XMLID_6910_">
								<g id="XMLID_6922_">
									<g id="XMLID_6923_">
										<path id="XMLID_6924_" fill="#8D7C6F" d="M509.498,84.289c3.854,0,6.976-3.124,6.976-6.979v-6.909
											c0-3.855-3.123-6.978-6.976-6.978c-3.854,0-6.978,3.123-6.978,6.978v6.909C502.521,81.165,505.644,84.289,509.498,84.289z
											"/>
									</g>
								</g>
								<g id="XMLID_6919_">
									<g id="XMLID_6920_">
										<path id="XMLID_6921_" fill="#8D7C6F" d="M522.504,84.289c3.853,0,6.977-3.124,6.977-6.979v-6.909
											c0-3.855-3.124-6.978-6.977-6.978c-3.854,0-6.978,3.123-6.978,6.978v6.909C515.526,81.165,518.65,84.289,522.504,84.289z"
											/>
									</g>
								</g>
								<g id="XMLID_6915_">
									<g id="XMLID_6916_">
										<g id="XMLID_6917_">
											<path id="XMLID_6918_" fill="#8D7C6F" d="M496.492,84.289c3.855,0,6.979-3.124,6.979-6.979v-6.909
												c0-3.855-3.124-6.978-6.979-6.978c-3.853,0-6.977,3.123-6.977,6.978v6.909C489.514,81.165,492.639,84.289,496.492,84.289
												z"/>
										</g>
									</g>
								</g>
								<g id="XMLID_6911_">
									<g id="XMLID_6912_">
										<g id="XMLID_6913_">
											<path id="XMLID_6914_" fill="#8D7C6F" d="M483.487,84.289c3.856,0,6.979-3.124,6.979-6.979v-6.909
												c0-3.855-3.123-6.978-6.979-6.978c-3.853,0-6.976,3.123-6.976,6.978v6.909C476.511,81.165,479.634,84.289,483.487,84.289
												z"/>
										</g>
									</g>
								</g>
							</g>
							<g id="XMLID_6908_">
								<path id="XMLID_6909_" fill="#E2C07F" d="M476.911,66.267c0-14.643,11.869-26.512,26.513-26.512
									c14.642,0,26.512,11.869,26.512,26.512c0,2.07-0.246,4.081-0.694,6.017h-51.639
									C477.155,70.348,476.911,68.337,476.911,66.267z"/>
							</g>
							<g id="XMLID_6906_">
								<path id="XMLID_6907_" fill="#E2C07F" d="M503.424,55.428c22.68,0,42.904,8.239,56.107,21.103H447.314
									C460.516,63.667,480.74,55.428,503.424,55.428z"/>
							</g>
						</g>
					</g>
				</g>
				<g id="XMLID_6878_">
					<g id="XMLID_6879_">
						<g id="XMLID_6901_">
							
								<rect id="XMLID_6902_" x="529.762" y="145.59" transform="matrix(0.3387 -0.9409 0.9409 0.3387 200.7316 624.1557)" fill="#C5C6C8" width="29.217" height="47.387"/>
						</g>
						<g id="XMLID_6899_">
							
								<ellipse id="XMLID_6900_" transform="matrix(0.3387 -0.9409 0.9409 0.3387 184.5278 628.5915)" fill="#C5C6C8" cx="539.424" cy="183.028" rx="23.694" ry="23.693"/>
						</g>
						<g id="XMLID_6897_">
							<polygon id="XMLID_6898_" fill="#B59D8C" points="575.536,70.138 583.983,73.18 552.168,160.874 543.719,157.834 							"/>
						</g>
						<g id="XMLID_6892_">
							<g id="XMLID_6895_">
								<polygon id="XMLID_6896_" fill="#ECECED" points="540.864,179.021 540.865,179.023 540.868,179.023 								"/>
							</g>
							<g id="XMLID_6893_">
								<path id="XMLID_6894_" fill="#D8D9DA" d="M542.086,157.245l-0.001-0.001l5.885-16.352c0.326-0.904,1.32-1.372,2.225-1.046
									l4.224,1.519l4.225,1.52c0.903,0.326,1.372,1.321,1.045,2.223l-5.886,16.353c0,0-5.308,15.891-12.937,17.561
									C536.051,172.873,542.086,157.245,542.086,157.245z"/>
							</g>
						</g>
						<g id="XMLID_6889_">
							<g id="XMLID_6890_">
								<path id="XMLID_6891_" fill="#E2826E" d="M581.991,83.849c-0.324,0.903-1.321,1.371-2.223,1.048l-4.225-1.522l-4.223-1.52
									c-0.905-0.325-1.372-1.32-1.048-2.224l2.288-6.356l11.719,4.217L581.991,83.849z"/>
							</g>
						</g>
						<g id="XMLID_6886_">
							<g id="XMLID_6887_">
								<path id="XMLID_6888_" fill="#E2826E" d="M567.016,71.999l22.352,8.045c2.407,0.868,5.064-0.383,5.93-2.79
									c0.866-2.409-0.384-5.064-2.791-5.931l-22.352-8.046c-2.408-0.865-5.065,0.385-5.93,2.794
									C563.358,68.476,564.609,71.132,567.016,71.999z"/>
							</g>
						</g>
						<g id="XMLID_6883_">
							<g id="XMLID_6884_">
								<path id="XMLID_6885_" fill="#917A73" d="M590.469,80.435c1.807,0.652,3.798-0.286,4.448-2.093l3.625-10.071
									c3.084-8.572-1.379-18.058-9.953-21.144c-8.574-3.087-18.058,1.38-21.145,9.953l-3.233,8.985
									c-0.652,1.806,0.285,3.798,2.092,4.448c1.808,0.65,3.798-0.288,4.447-2.093l3.234-8.986
									c1.787-4.967,7.284-7.554,12.249-5.765c4.968,1.786,7.555,7.283,5.768,12.248l-3.625,10.071
									C587.725,77.795,588.663,79.786,590.469,80.435z"/>
							</g>
						</g>
						<g id="XMLID_6880_">
							<g id="XMLID_6881_">
								<path id="XMLID_6882_" fill="#E2826E" d="M567.016,71.999l14.762,5.314c2.407,0.867,5.064-0.384,5.929-2.793
									c0.868-2.406-0.382-5.062-2.789-5.929l-14.763-5.314c-2.408-0.865-5.065,0.385-5.93,2.794
									C563.358,68.476,564.609,71.132,567.016,71.999z"/>
							</g>
						</g>
					</g>
				</g>
			</g>
			<g id="XMLID_6874_">
				<g id="XMLID_6875_">
					
						<ellipse id="XMLID_6876_" transform="matrix(0.8673 -0.4977 0.4977 0.8673 25.3424 297.2595)" fill="#AC9686" cx="570.314" cy="101.089" rx="13.753" ry="13.754"/>
				</g>
			</g>
		</g>
	</g>
</g>
</svg>
