<svg width="69" height="45" viewBox="0 0 69 45" fill="none" xmlns="http://www.w3.org/2000/svg">
<path d="M39.0441 34.8606L37.5965 40.1336C37.1667 41.699 35.5154 42.5872 33.9724 42.0828V42.0828C32.8037 41.7007 32.0132 40.6106 32.0132 39.3811V32.0399M11.8792 12.2949L18.9101 13.862" stroke="#917975" stroke-width="5"/>
<path d="M62.111 34.2346C62.111 37.4816 59.4132 40.1967 55.9821 40.1967C52.5511 40.1967 49.8533 37.4816 49.8533 34.2346C49.8533 30.9876 52.5511 28.2725 55.9821 28.2725C59.4132 28.2725 62.111 30.9876 62.111 34.2346Z" fill="white" stroke="#917975" stroke-width="5"/>
<path d="M2.61108 8.84767C2.61108 6.34013 12.8985 10.0143 11.5595 12.6083C10.7878 14.1035 2.93067 11.3548 2.61108 8.84767Z" fill="#917975"/>
<path d="M62.374 16.3696C55.343 15.3604 18.7776 9.45738 18.7776 14.2447C18.7776 21.6977 25.6214 32.9806 41.9204 35.4879C52.4668 33.294 68.1352 17.1965 62.374 16.3696Z" fill="#917975"/>
<path d="M2.61108 8.84767C2.61108 6.34013 12.8985 10.0143 11.5595 12.6083C10.7878 14.1035 2.93067 11.3548 2.61108 8.84767Z" stroke="#917975" stroke-width="5"/>
<path d="M62.374 16.3696C55.343 15.3604 18.7776 9.45738 18.7776 14.2447C18.7776 21.6977 25.6214 32.9806 41.9204 35.4879C52.4668 33.294 68.1352 17.1965 62.374 16.3696Z" stroke="#917975" stroke-width="5"/>
<path d="M20.1883 12.1862C17.8873 5.91799 23.8328 3.85201 23.8328 6.67288C26.7091 9.4936 26.3895 1.03267 32.142 6.67286C31.1833 8.86759 35.4151 1.59869 38.611 5.6723C37.3326 10.6873 43.9718 2.09122 44.611 8.67288C51.0027 5.22534 48.5457 7.50135 49.611 9.17288C52.8069 3.53128 54.7588 8.71029 55.611 10.1729C58.4873 6.41192 59.6522 8.79238 60.611 10.6729C63.4234 3.90314 66.2089 12.1862 63.3326 15.0072" stroke="#C4D89F" stroke-width="8"/>
</svg>
