<svg width="67" height="40" viewBox="0 0 67 40" fill="none" xmlns="http://www.w3.org/2000/svg">
<path d="M39.0441 30.0237L37.5965 35.2967C37.1667 36.8621 35.5154 37.7502 33.9724 37.2458V37.2458C32.8037 36.8638 32.0132 35.7737 32.0132 34.5442V27.203M11.8792 7.45801L18.9101 9.02507" stroke="#917975" stroke-width="5"/>
<path d="M62.111 29.3977C62.111 32.6447 59.4132 35.3598 55.9821 35.3598C52.5511 35.3598 49.8533 32.6447 49.8533 29.3977C49.8533 26.1506 52.5511 23.4355 55.9821 23.4355C59.4132 23.4355 62.111 26.1506 62.111 29.3977Z" fill="white" stroke="#917975" stroke-width="5"/>
<path d="M2.61108 4.01075C2.61108 1.50322 12.8985 5.1774 11.5595 7.77143C10.7878 9.26655 2.93067 6.51788 2.61108 4.01075Z" fill="#917975"/>
<path d="M62.374 11.5326C55.343 10.5235 18.7776 4.62047 18.7776 9.40779C18.7776 16.8608 25.6214 28.1436 41.9204 30.6509C52.4668 28.4571 68.1352 12.3595 62.374 11.5326Z" fill="#917975"/>
<path d="M2.61108 4.01075C2.61108 1.50322 12.8985 5.1774 11.5595 7.77143C10.7878 9.26655 2.93067 6.51788 2.61108 4.01075Z" stroke="#917975" stroke-width="5"/>
<path d="M62.374 11.5326C55.343 10.5235 18.7776 4.62047 18.7776 9.40779C18.7776 16.8608 25.6214 28.1436 41.9204 30.6509C52.4668 28.4571 68.1352 12.3595 62.374 11.5326Z" stroke="#917975" stroke-width="5"/>
</svg>
