<svg viewBox="0 0 50 50" fill="none" xmlns="http://www.w3.org/2000/svg" class="p-benefits-icon">
    <path d="M16.1 10.05c5.95-.4 7.7 1.8 7.7 1.8 1.65 1.6 1.7 4.15.1 5.7-1.6 1.55-4.2 1.55-5.85-.05 0 .05-2.3-1.65-1.95-7.45z" fill="#63DB86" />
    <path d="M24.9 12.25c-3.45.05-6.25 2.85-6.25 6.3v.2c.05 1.8-.55 3.55-1.8 4.8-1.95 2-3.15 4.75-3.2 7.8-.05 6.2 4.95 11.3 11.15 11.4h.05c6.35.1 11.45-5 11.45-11.25 0-3.05-1.2-5.8-3.15-7.85-1.25-1.3-1.95-3-1.85-4.8v-.45c-.1-3.3-2.75-6-6.05-6.15h-.35z" fill="#FC6F70" />
    <path d="M23.6 10.05S25.75 7 33.6 7.2c.85 7.6-2.1 10-2.1 10-2.05 2.2-5.5 2.35-7.65.4-2.2-2-2.3-5.35-.25-7.55z" fill="#30A853" />
</svg>