<svg  viewBox="0 0 50 50" fill="none" xmlns="http://www.w3.org/2000/svg" class="p-benefits-icon">
    <path  d="M25 3.896c11.655 0 21.104 9.448 21.104 21.104 0 11.656-9.448 21.104-21.104 21.104-11.655 0-21.104-9.448-21.104-21.104C3.896 13.345 13.344 3.896 25 3.896z" fill="#fff" />
    <path  d="M5.98 24.785C5.866 35.3 14.286 43.909 24.795 44.022c10.495.112 19.112-8.316 19.225-18.83.113-10.495-8.322-19.101-18.817-19.213-10.51-.113-19.112 8.31-19.225 18.806z" fill="#FB9B2D" />
    <path  d="M10.036 24.828c.088-8.24 6.87-14.89 15.124-14.801 8.251.089 14.89 6.881 14.802 15.122-.089 8.257-6.872 14.903-15.123 14.815-8.253-.089-14.892-6.879-14.803-15.136z" fill="#FDD8A7" />
    <path  d="M30.276 24.878c-.751-.785-2.178-1.442-4.28-1.96l.048-4.441c.857.33 1.372.944 1.568 1.836l3.32-.343c-.215-1.131-.728-2.05-1.548-2.74-.815-.68-1.92-1.109-3.313-1.267l.012-1.119-1.9-.02-.012 1.119c-1.511.11-2.723.583-3.64 1.419-.912.836-1.376 1.879-1.39 3.12-.012 1.231.372 2.273 1.167 3.15.795.867 2.042 1.52 3.76 1.966l-.051 4.755c-.469-.193-.897-.518-1.28-.965a3.545 3.545 0 01-.774-1.579l-3.428.287c.246 1.489.841 2.657 1.775 3.486.94.83 2.165 1.332 3.678 1.5l-.022 2.07 1.9.02.022-2.118c1.72-.2 3.058-.759 4.025-1.69.971-.93 1.463-2.075 1.478-3.454.013-1.226-.354-2.23-1.115-3.032zm-6.173-2.52c-.567-.216-.993-.509-1.267-.849-.27-.347-.42-.718-.416-1.13.005-.431.17-.839.478-1.199.313-.357.721-.613 1.246-.757l-.041 3.936zm3.429 7.407c-.422.418-.954.674-1.617.774l.048-4.429c.794.198 1.358.495 1.702.864.34.369.508.804.502 1.319-.006.562-.224 1.05-.635 1.473z" fill="#FB9B2D" />
</svg>