<svg viewBox="0 0 50 50" fill="none" xmlns="http://www.w3.org/2000/svg" class="p-benefits-icon">
    <path d="M26.384 41.672c-.588 0-1.552-.472-1.552-1.055v-18.43c0-.583.963-1.056 1.552-1.056.587 0 1.55.473 1.55 1.056v18.43c0 .583-.963 1.056-1.55 1.056z" fill="#63DB86" />
    <path d="M33.966 39.383c2.24-2.229 2.709-5.365 1.048-7.005-1.66-1.64-4.822-1.163-7.062 1.066 0 0-3.052 2.466-3.582 9.527 7.12-.553 9.596-3.587 9.596-3.587zM37.955 17.134c-1.66-1.64-4.822-1.164-7.062 1.066 0 0-1.811 1.467-2.886 5.37-.283-8.582-3.596-12.156-3.596-12.156-3.072-4.093-8.034-5.587-11.083-3.338-3.05 2.25-3.032 7.392.04 11.485 0 0 3.072 5.356 13.891 7.937-.01.112.009-.114 0 0 7.12-.553 9.649-3.358 9.649-3.358 2.238-2.229 2.708-5.366 1.047-7.006z" fill="#30A853" />
</svg>