<svg width="33" height="32" viewBox="0 0 33 32" fill="none" xmlns="http://www.w3.org/2000/svg">
<path fill-rule="evenodd" clip-rule="evenodd" d="M16.4848 0C7.37697 0 0 7.3411 0 16.4047C0 23.6638 4.71879 29.795 11.2715 31.9687C12.0958 32.1122 12.4048 31.6201 12.4048 31.1894C12.4048 30.7998 12.3842 29.508 12.3842 28.1341C8.24242 28.8928 7.17091 27.1293 6.84121 26.2065C6.65576 25.7349 5.85212 24.279 5.15151 23.8893C4.57454 23.5818 3.7503 22.823 5.13091 22.8025C6.42909 22.782 7.35636 23.9919 7.66545 24.484C9.14909 26.9652 11.5188 26.268 12.4667 25.8374C12.6109 24.7711 13.0436 24.0534 13.5176 23.6433C9.8497 23.2332 6.01697 21.8183 6.01697 15.5435C6.01697 13.7594 6.65576 12.283 7.70667 11.1347C7.54182 10.7246 6.96485 9.04309 7.87151 6.78745C7.87151 6.78745 9.25212 6.35682 12.4048 8.46893C13.7236 8.09982 15.1248 7.91527 16.5261 7.91527C17.9273 7.91527 19.3285 8.09982 20.6473 8.46893C23.8 6.33632 25.1806 6.78745 25.1806 6.78745C26.0873 9.04309 25.5103 10.7246 25.3455 11.1347C26.3964 12.283 27.0351 13.7389 27.0351 15.5435C27.0351 21.8388 23.1818 23.2332 19.5139 23.6433C20.1115 24.1559 20.6267 25.1402 20.6267 26.6781C20.6267 28.8723 20.6061 30.6358 20.6061 31.1894C20.6061 31.6201 20.9151 32.1327 21.7394 31.9687C28.2509 29.795 32.9697 23.6433 32.9697 16.4047C32.9697 7.3411 25.5927 0 16.4848 0Z" fill="#1B1F23"/>
</svg>
