<svg width="34" height="33" viewBox="0 0 34 33" fill="none" xmlns="http://www.w3.org/2000/svg">
<path d="M14.1468 3.54508L15.0979 3.8541L14.1468 3.54508L12.0077 10.1287C11.8738 10.5407 11.4899 10.8197 11.0566 10.8197H4.13424C1.22807 10.8197 0.0197377 14.5385 2.37088 16.2467L7.97122 20.3156C8.32171 20.5702 8.46836 21.0216 8.33449 21.4336L6.19535 28.0172C5.2973 30.7812 8.46073 33.0795 10.8119 31.3713L16.4122 27.3024C16.7627 27.0478 17.2373 27.0478 17.5878 27.3024L23.1881 31.3713C25.5393 33.0795 28.7027 30.7812 27.8047 28.0172L25.6655 21.4336C25.5316 21.0216 25.6783 20.5702 26.0288 20.3156L31.6291 16.2467C33.9803 14.5385 32.7719 10.8197 29.8658 10.8197H22.9434C22.5101 10.8197 22.1262 10.5407 21.9923 10.1287L19.8532 3.54508C18.9551 0.781151 15.0449 0.781151 14.1468 3.54508Z" fill="#FFE500" stroke="#1D1D1F" stroke-width="2"/>
</svg>
